<?xml version="1.0" encoding="UTF-8"?>
<svg id="_Слой_2" data-name="Слой 2" xmlns="http://www.w3.org/2000/svg" viewBox="0 0 567.65 770.28">
  <defs>
    <style>
      .cls-1 {
        fill: #d1b88f;
      }

      .cls-1, .cls-2, .cls-3, .cls-4, .cls-5, .cls-6, .cls-7, .cls-8, .cls-9, .cls-10, .cls-11, .cls-12 {
        stroke-width: 0px;
      }

      .cls-2 {
        fill: #f0e2d9;
      }

      .cls-3, .cls-13 {
        fill: #b34f4a;
      }

      .cls-4 {
        fill: #ccb28b;
      }

      .cls-5 {
        fill: #efeaea;
      }

      .cls-6 {
        fill: #f6f3f4;
      }

      .cls-7 {
        fill: #f2e5c9;
      }

      .cls-13 {
        font-family: ComicSansMS, 'Comic Sans MS';
        font-size: 70px;
        letter-spacing: .1em;
      }

      .cls-8 {
        fill: #f2e2e2;
      }

      .cls-9 {
        fill: #cc5d52;
      }

      .cls-10 {
        fill: #000;
        opacity: .3;
      }

      .cls-11 {
        fill: #f3f3f3;
      }

      .cls-12 {
        fill: #e2cfcf;
      }
    </style>
  </defs>
  <g id="_Слой_1-2" data-name="Слой 1">
    <g>
      <path class="cls-1" d="M548.64,192.57c0-5.81-4.43-10.59-10.11-11.17.54-2.33.84-4.76.84-7.25,0-17.87-14.55-32.36-32.49-32.36-1.48,0-2.93.11-4.35.3,3.04-9.92,1.22-20.94-5.86-29.22-3.3-3.86-7.37-6.69-11.83-8.48,2.37-3.96,2.16-9.04-.91-12.64-3.65-4.28-10.03-4.94-14.72-1.71-1.05-2.06-2.35-4.04-3.92-5.88-9.36-10.97-24.94-13.67-37.79-7.57-4.8-11.9-16.49-20.31-30.16-20.31-.36,0-.72.02-1.08.03-.64-7.47-3.86-14.75-9.67-20.4-3.77-3.67-8.22-6.22-12.92-7.7,1.95-4.2,1.16-9.33-2.35-12.75-4.18-4.06-10.7-4.24-15.09-.6-1.3-2.01-2.83-3.92-4.63-5.66-12.84-12.48-33.41-12.24-45.95.55-3.8,3.88-6.43,8.47-7.88,13.33-3.19.32-6.44,1.73-9.17,4.14-5.42-4.04-12.16-6.44-19.45-6.44-12.52,0-23.39,7.06-28.81,17.4-2.27-.5-4.62-.77-7.04-.77-12.97,0-24.16,7.57-29.37,18.51-5.87-8.37-15.61-13.84-26.64-13.84-5.45,0-10.58,1.34-15.08,3.7-2.75-2.28-6.51-3.7-10.66-3.7-8.41,0-15.23,5.78-15.23,12.92,0,1.4.27,2.74.76,4.01-15.88,2.13-28.12,15.66-28.12,32.06,0,.23.01.46.02.69-.51-.56-1.03-1.1-1.58-1.63-12.94-12.38-33.51-11.98-45.94.9-6.86,7.11-9.81,16.53-8.9,25.64-6.51,1.16-12.72,4.3-17.65,9.41-12.44,12.88-12.03,33.37.91,45.75.54.52,1.1,1.02,1.67,1.49-.15.73-.24,1.47-.24,2.23,0,1.4.27,2.74.76,4.01-15.88,2.13-28.12,15.66-28.12,32.06,0,15.28,10.65,28.08,24.95,31.47-4.19,6.06-4.12,13.79.57,18.46,5.4,5.38,14.88,4.65,21.18-1.62.46-.46.89-.95,1.29-1.44,5.94,7.57,15.19,12.44,25.6,12.44,14.68,0,27.08-9.7,31.11-23.01,5.25,10.82,16.38,18.29,29.26,18.29,8.66,0,16.52-3.38,22.34-8.87,0,3.42,1.17,6.67,3.6,9.1,5.4,5.38,14.88,4.65,21.18-1.62.46-.46.89-.95,1.29-1.44,5.94,7.57,15.19,12.44,25.6,12.44,13.1,0,24.37-7.72,29.52-18.83,5.43,5.18,14.77,4.41,20.99-1.79.46-.46.89-.95,1.29-1.44,5.94,7.57,15.19,12.44,25.6,12.44,17.47,0,31.72-13.73,32.46-30.95.92.31,1.86.58,2.82.81-4.19,6.06-4.12,13.79.57,18.46,5.4,5.38,14.88,4.65,21.18-1.62.46-.46.89-.95,1.29-1.44,5.94,7.57,15.19,12.44,25.6,12.44,13.38,0,24.87-8.06,29.85-19.56.05.05.09.1.14.16,12.31,13,32.88,13.6,45.93,1.33,2.74-2.58,4.92-5.52,6.55-8.68.59,1.29,1.39,2.49,2.44,3.54,5.4,5.38,14.88,4.65,21.18-1.62.46-.46.89-.95,1.29-1.44,5.94,7.57,15.19,12.44,25.6,12.44,17.95,0,32.49-14.49,32.49-32.36,0-5.25-1.27-10.2-3.5-14.58,4.38-1.54,7.52-5.69,7.52-10.58Z"/>
      <g>
        <path class="cls-11" d="M172.51,217.34c3.55-4.9,5.65-10.92,5.65-17.44,0-16.43-13.32-29.74-29.74-29.74-11.46,0-21.41,6.49-26.37,15.99-2.07-.46-4.23-.71-6.44-.71-16.43,0-29.74,13.32-29.74,29.74s13.32,29.74,29.74,29.74c2.82,0,5.54-.4,8.13-1.13,1.88,14.62,14.36,25.92,29.49,25.92,16.43,0,29.74-13.32,29.74-29.74,0-9.07-4.06-17.18-10.46-22.63Z"/>
        <path class="cls-2" d="M159.76,218.22c2.36-3.26,3.76-7.26,3.76-11.6,0-10.93-8.86-19.78-19.78-19.78-7.62,0-14.24,4.32-17.54,10.64-1.38-.3-2.81-.47-4.28-.47-10.93,0-19.78,8.86-19.78,19.78s8.86,19.78,19.78,19.78c1.87,0,3.69-.27,5.41-.75,1.25,9.72,9.55,17.24,19.61,17.24,10.93,0,19.78-8.86,19.78-19.78,0-6.03-2.7-11.43-6.96-15.05Z"/>
      </g>
      <g>
        <path class="cls-11" d="M69.68,132.26c-5.96,1.07-11.64,3.96-16.16,8.65-11.38,11.84-11.01,30.67.83,42.05,8.26,7.94,19.93,10.16,30.09,6.75,1.18,1.77,2.56,3.44,4.15,4.97,11.84,11.38,30.67,11.01,42.05-.83s11.01-30.67-.83-42.05c-2.03-1.95-4.27-3.55-6.64-4.82,8.78-11.84,7.61-28.64-3.3-39.12-11.84-11.38-30.67-11.01-42.05.83-6.28,6.54-8.98,15.2-8.15,23.57Z"/>
        <path class="cls-2" d="M79.48,140.47c-3.96.71-7.74,2.63-10.75,5.75-7.57,7.88-7.32,20.4.55,27.97,5.5,5.28,13.25,6.76,20.02,4.49.78,1.18,1.7,2.29,2.76,3.31,7.88,7.57,20.4,7.32,27.97-.55,7.57-7.88,7.32-20.4-.55-27.97-1.35-1.3-2.84-2.36-4.42-3.2,5.84-7.87,5.06-19.05-2.19-26.02-7.88-7.57-20.4-7.32-27.97.55-4.18,4.35-5.97,10.11-5.42,15.67Z"/>
      </g>
      <g>
        <path class="cls-11" d="M323.99,135.31c3.55-4.9,5.65-10.92,5.65-17.44,0-16.43-13.32-29.74-29.74-29.74-11.46,0-21.41,6.49-26.37,15.99-2.07-.46-4.23-.71-6.44-.71-16.43,0-29.74,13.32-29.74,29.74s13.32,29.74,29.74,29.74c2.82,0,5.54-.4,8.13-1.13,1.88,14.62,14.36,25.92,29.49,25.92,16.43,0,29.74-13.32,29.74-29.74,0-9.07-4.06-17.18-10.46-22.63Z"/>
        <path class="cls-2" d="M311.23,136.18c2.36-3.26,3.76-7.26,3.76-11.6,0-10.93-8.86-19.78-19.78-19.78-7.62,0-14.24,4.32-17.54,10.64-1.38-.3-2.81-.47-4.28-.47-10.93,0-19.78,8.86-19.78,19.78s8.86,19.78,19.78,19.78c1.87,0,3.69-.27,5.41-.75,1.25,9.72,9.55,17.24,19.61,17.24,10.93,0,19.78-8.86,19.78-19.78,0-6.03-2.7-11.43-6.96-15.05Z"/>
      </g>
      <g>
        <path class="cls-11" d="M378.36,175.43c3.55-4.9,5.65-10.92,5.65-17.44,0-16.43-13.32-29.74-29.74-29.74-11.46,0-21.41,6.49-26.37,15.99-2.07-.46-4.23-.71-6.44-.71-16.43,0-29.74,13.32-29.74,29.74s13.32,29.74,29.74,29.74c2.82,0,5.54-.4,8.13-1.13,1.88,14.62,14.36,25.92,29.49,25.92,16.43,0,29.74-13.32,29.74-29.74,0-9.07-4.06-17.18-10.46-22.63Z"/>
        <path class="cls-2" d="M365.6,176.3c2.36-3.26,3.76-7.26,3.76-11.6,0-10.93-8.86-19.78-19.78-19.78-7.62,0-14.24,4.32-17.54,10.64-1.38-.3-2.81-.47-4.28-.47-10.93,0-19.78,8.86-19.78,19.78s8.86,19.78,19.78,19.78c1.87,0,3.69-.27,5.41-.75,1.25,9.72,9.55,17.24,19.61,17.24,10.93,0,19.78-8.86,19.78-19.78,0-6.03-2.7-11.43-6.96-15.05Z"/>
      </g>
      <g>
        <path class="cls-11" d="M292.04,81.48c3.55-4.9,5.65-10.92,5.65-17.44,0-16.43-13.32-29.74-29.74-29.74-11.46,0-21.41,6.49-26.37,15.99-2.07-.46-4.23-.71-6.44-.71-16.43,0-29.74,13.32-29.74,29.74s13.32,29.74,29.74,29.74c2.82,0,5.54-.4,8.13-1.13,1.88,14.62,14.36,25.92,29.49,25.92,16.43,0,29.74-13.32,29.74-29.74,0-9.07-4.06-17.18-10.46-22.63Z"/>
        <path class="cls-2" d="M279.28,82.35c2.36-3.26,3.76-7.26,3.76-11.6,0-10.93-8.86-19.78-19.78-19.78-7.62,0-14.24,4.32-17.54,10.64-1.38-.3-2.81-.47-4.28-.47-10.93,0-19.78,8.86-19.78,19.78s8.86,19.78,19.78,19.78c1.87,0,3.69-.27,5.41-.75,1.25,9.72,9.55,17.24,19.61,17.24,10.93,0,19.78-8.86,19.78-19.78,0-6.03-2.7-11.43-6.96-15.05Z"/>
      </g>
      <g>
        <path class="cls-6" d="M131.4,221.19c0-5.34-4.05-9.73-9.25-10.27.49-2.14.77-4.37.77-6.67,0-16.43-13.32-29.74-29.74-29.74-4.99,0-9.68,1.23-13.81,3.4-2.51-2.1-5.96-3.4-9.75-3.4-7.7,0-13.94,5.32-13.94,11.88,0,1.29.25,2.52.69,3.68-14.53,1.96-25.74,14.4-25.74,29.47,0,14.05,9.74,25.81,22.84,28.93-3.83,5.57-3.77,12.68.52,16.97,4.94,4.94,13.62,4.28,19.39-1.49.42-.42.81-.87,1.18-1.32,5.44,6.96,13.91,11.44,23.43,11.44,16.43,0,29.74-13.32,29.74-29.74,0-4.83-1.16-9.38-3.2-13.41,4.01-1.42,6.88-5.23,6.88-9.73Z"/>
        <path class="cls-7" d="M119.27,221.93c0-4.06-3.08-7.39-7.03-7.8.37-1.63.58-3.32.58-5.06,0-12.47-10.11-22.58-22.58-22.58-3.79,0-7.35.93-10.48,2.58-1.91-1.59-4.52-2.58-7.41-2.58-5.85,0-10.59,4.04-10.59,9.02,0,.98.19,1.92.53,2.8-11.04,1.48-19.55,10.93-19.55,22.38,0,10.67,7.4,19.6,17.34,21.97-2.91,4.23-2.87,9.63.39,12.89,3.75,3.75,10.35,3.25,14.72-1.13.32-.32.62-.66.9-1,4.13,5.29,10.56,8.69,17.79,8.69,12.47,0,22.58-10.11,22.58-22.58,0-3.66-.88-7.12-2.43-10.18,3.04-1.08,5.23-3.97,5.23-7.39Z"/>
        <path class="cls-2" d="M119.27,221.93c0-4.06-3.08-7.39-7.03-7.8.37-1.63.58-3.32.58-5.06,0-12.47-10.11-22.58-22.58-22.58-3.79,0-7.35.93-10.48,2.58-1.91-1.59-4.52-2.58-7.41-2.58-5.85,0-10.59,4.04-10.59,9.02,0,.98.19,1.92.53,2.8-11.04,1.48-19.55,10.93-19.55,22.38,0,10.67,7.4,19.6,17.34,21.97-2.91,4.23-2.87,9.63.39,12.89,3.75,3.75,10.35,3.25,14.72-1.13.32-.32.62-.66.9-1,4.13,5.29,10.56,8.69,17.79,8.69,12.47,0,22.58-10.11,22.58-22.58,0-3.66-.88-7.12-2.43-10.18,3.04-1.08,5.23-3.97,5.23-7.39Z"/>
        <path class="cls-4" d="M92.09,223.6c0-1.17-.89-2.14-2.04-2.26.11-.47.17-.96.17-1.47,0-3.61-2.93-6.54-6.54-6.54-1.1,0-2.13.27-3.04.75-.55-.46-1.31-.75-2.15-.75-1.69,0-3.07,1.17-3.07,2.61,0,.28.05.55.15.81-3.2.43-5.66,3.17-5.66,6.48,0,3.09,2.14,5.68,5.02,6.36-.84,1.23-.83,2.79.11,3.73,1.09,1.09,3,.94,4.26-.33.09-.09.18-.19.26-.29,1.2,1.53,3.06,2.52,5.15,2.52,3.61,0,6.54-2.93,6.54-6.54,0-1.06-.26-2.06-.7-2.95.88-.31,1.51-1.15,1.51-2.14Z"/>
      </g>
      <g>
        <path class="cls-6" d="M262.32,193.82c-1.11-5.22-5.99-8.68-11.18-8.13.04-2.2-.16-4.44-.63-6.68-3.41-16.07-19.2-26.33-35.27-22.92-4.88,1.03-9.22,3.21-12.8,6.19-2.9-1.53-6.53-2.09-10.25-1.3-7.53,1.6-12.53,8.09-11.17,14.51.27,1.26.77,2.42,1.44,3.46-13.81,4.93-22.19,19.43-19.07,34.17,2.92,13.74,14.89,23.23,28.35,23.56-2.59,6.25-1.06,13.19,4.03,16.49,5.86,3.81,14.22,1.36,18.66-5.48.33-.5.61-1.02.88-1.54,6.77,5.68,15.98,8.3,25.29,6.33,16.07-3.41,26.33-19.2,22.92-35.27-1-4.72-3.08-8.93-5.91-12.45,3.63-2.22,5.65-6.55,4.72-10.94Z"/>
        <path class="cls-7" d="M250.62,197.07c-.84-3.97-4.55-6.59-8.49-6.17.03-1.67-.12-3.37-.48-5.07-2.59-12.2-14.58-19.99-26.78-17.41-3.7.79-7,2.44-9.72,4.7-2.2-1.16-4.96-1.59-7.78-.99-5.72,1.21-9.52,6.15-8.48,11.02.2.96.58,1.84,1.09,2.63-10.49,3.74-16.85,14.75-14.48,25.94,2.21,10.44,11.31,17.64,21.52,17.89-1.97,4.74-.81,10.01,3.06,12.52,4.45,2.89,10.79,1.03,14.17-4.16.25-.38.47-.77.67-1.17,5.14,4.31,12.13,6.31,19.21,4.81,12.2-2.59,19.99-14.58,17.41-26.78-.76-3.59-2.34-6.78-4.49-9.45,2.75-1.69,4.29-4.97,3.58-8.31Z"/>
        <path class="cls-2" d="M250.62,197.07c-.84-3.97-4.55-6.59-8.49-6.17.03-1.67-.12-3.37-.48-5.07-2.59-12.2-14.58-19.99-26.78-17.41-3.7.79-7,2.44-9.72,4.7-2.2-1.16-4.96-1.59-7.78-.99-5.72,1.21-9.52,6.15-8.48,11.02.2.96.58,1.84,1.09,2.63-10.49,3.74-16.85,14.75-14.48,25.94,2.21,10.44,11.31,17.64,21.52,17.89-1.97,4.74-.81,10.01,3.06,12.52,4.45,2.89,10.79,1.03,14.17-4.16.25-.38.47-.77.67-1.17,5.14,4.31,12.13,6.31,19.21,4.81,12.2-2.59,19.99-14.58,17.41-26.78-.76-3.59-2.34-6.78-4.49-9.45,2.75-1.69,4.29-4.97,3.58-8.31Z"/>
        <path class="cls-4" d="M224.37,204.35c-.24-1.15-1.32-1.91-2.46-1.79,0-.48-.03-.98-.14-1.47-.75-3.53-4.22-5.79-7.76-5.04-1.07.23-2.03.71-2.82,1.36-.64-.34-1.44-.46-2.25-.29-1.66.35-2.76,1.78-2.46,3.19.06.28.17.53.32.76-3.04,1.08-4.88,4.27-4.19,7.51.64,3.02,3.27,5.11,6.23,5.18-.57,1.37-.23,2.9.89,3.63,1.29.84,3.13.3,4.1-1.21.07-.11.14-.22.19-.34,1.49,1.25,3.51,1.83,5.56,1.39,3.53-.75,5.79-4.22,5.04-7.76-.22-1.04-.68-1.96-1.3-2.74.8-.49,1.24-1.44,1.04-2.41Z"/>
      </g>
      <g>
        <path class="cls-6" d="M324.9,203.77c0-5.34-4.05-9.73-9.25-10.27.49-2.14.77-4.37.77-6.67,0-16.43-13.32-29.74-29.74-29.74-4.99,0-9.68,1.23-13.81,3.4-2.51-2.1-5.96-3.4-9.75-3.4-7.7,0-13.94,5.32-13.94,11.88,0,1.29.25,2.52.69,3.68-14.53,1.96-25.74,14.4-25.74,29.47,0,14.05,9.74,25.81,22.84,28.93-3.83,5.57-3.77,12.68.52,16.97,4.94,4.94,13.62,4.28,19.39-1.49.42-.42.81-.87,1.18-1.32,5.44,6.96,13.91,11.44,23.43,11.44,16.43,0,29.74-13.32,29.74-29.74,0-4.83-1.16-9.38-3.2-13.41,4.01-1.42,6.88-5.23,6.88-9.73Z"/>
        <path class="cls-7" d="M312.77,204.51c0-4.06-3.08-7.39-7.03-7.8.37-1.63.58-3.32.58-5.06,0-12.47-10.11-22.58-22.58-22.58-3.79,0-7.35.93-10.48,2.58-1.91-1.59-4.52-2.58-7.41-2.58-5.85,0-10.59,4.04-10.59,9.02,0,.98.19,1.92.53,2.8-11.04,1.48-19.55,10.93-19.55,22.38,0,10.67,7.4,19.6,17.34,21.97-2.91,4.23-2.87,9.63.39,12.89,3.75,3.75,10.35,3.25,14.72-1.13.32-.32.62-.66.9-1,4.13,5.29,10.56,8.69,17.79,8.69,12.47,0,22.58-10.11,22.58-22.58,0-3.66-.88-7.12-2.43-10.18,3.04-1.08,5.23-3.97,5.23-7.39Z"/>
        <path class="cls-2" d="M312.77,204.51c0-4.06-3.08-7.39-7.03-7.8.37-1.63.58-3.32.58-5.06,0-12.47-10.11-22.58-22.58-22.58-3.79,0-7.35.93-10.48,2.58-1.91-1.59-4.52-2.58-7.41-2.58-5.85,0-10.59,4.04-10.59,9.02,0,.98.19,1.92.53,2.8-11.04,1.48-19.55,10.93-19.55,22.38,0,10.67,7.4,19.6,17.34,21.97-2.91,4.23-2.87,9.63.39,12.89,3.75,3.75,10.35,3.25,14.72-1.13.32-.32.62-.66.9-1,4.13,5.29,10.56,8.69,17.79,8.69,12.47,0,22.58-10.11,22.58-22.58,0-3.66-.88-7.12-2.43-10.18,3.04-1.08,5.23-3.97,5.23-7.39Z"/>
        <path class="cls-4" d="M285.59,206.19c0-1.17-.89-2.14-2.04-2.26.11-.47.17-.96.17-1.47,0-3.61-2.93-6.54-6.54-6.54-1.1,0-2.13.27-3.04.75-.55-.46-1.31-.75-2.15-.75-1.69,0-3.07,1.17-3.07,2.61,0,.28.05.55.15.81-3.2.43-5.66,3.17-5.66,6.48,0,3.09,2.14,5.68,5.02,6.36-.84,1.23-.83,2.79.11,3.73,1.09,1.09,3,.94,4.26-.33.09-.09.18-.19.26-.29,1.2,1.53,3.06,2.52,5.15,2.52,3.61,0,6.54-2.93,6.54-6.54,0-1.06-.26-2.06-.7-2.95.88-.31,1.51-1.15,1.51-2.14Z"/>
      </g>
      <g>
        <path class="cls-6" d="M322.43,205.3c0-5.34-4.05-9.73-9.25-10.27.49-2.14.77-4.37.77-6.67,0-16.43-13.32-29.74-29.74-29.74-4.99,0-9.68,1.23-13.81,3.4-2.51-2.1-5.96-3.4-9.75-3.4-7.7,0-13.94,5.32-13.94,11.88,0,1.29.25,2.52.69,3.68-14.53,1.96-25.74,14.4-25.74,29.47,0,14.05,9.74,25.81,22.84,28.93-3.83,5.57-3.77,12.68.52,16.97,4.94,4.94,13.62,4.28,19.39-1.49.42-.42.81-.87,1.18-1.32,5.44,6.96,13.91,11.44,23.43,11.44,16.43,0,29.74-13.32,29.74-29.74,0-4.83-1.16-9.38-3.2-13.41,4.01-1.42,6.88-5.23,6.88-9.73Z"/>
        <path class="cls-7" d="M310.31,206.05c0-4.06-3.08-7.39-7.03-7.8.37-1.63.58-3.32.58-5.06,0-12.47-10.11-22.58-22.58-22.58-3.79,0-7.35.93-10.48,2.58-1.91-1.59-4.52-2.58-7.41-2.58-5.85,0-10.59,4.04-10.59,9.02,0,.98.19,1.92.53,2.8-11.04,1.48-19.55,10.93-19.55,22.38,0,10.67,7.4,19.6,17.34,21.97-2.91,4.23-2.87,9.63.39,12.89,3.75,3.75,10.35,3.25,14.72-1.13.32-.32.62-.66.9-1,4.13,5.29,10.56,8.69,17.79,8.69,12.47,0,22.58-10.11,22.58-22.58,0-3.66-.88-7.12-2.43-10.18,3.04-1.08,5.23-3.97,5.23-7.39Z"/>
        <path class="cls-2" d="M310.31,206.05c0-4.06-3.08-7.39-7.03-7.8.37-1.63.58-3.32.58-5.06,0-12.47-10.11-22.58-22.58-22.58-3.79,0-7.35.93-10.48,2.58-1.91-1.59-4.52-2.58-7.41-2.58-5.85,0-10.59,4.04-10.59,9.02,0,.98.19,1.92.53,2.8-11.04,1.48-19.55,10.93-19.55,22.38,0,10.67,7.4,19.6,17.34,21.97-2.91,4.23-2.87,9.63.39,12.89,3.75,3.75,10.35,3.25,14.72-1.13.32-.32.62-.66.9-1,4.13,5.29,10.56,8.69,17.79,8.69,12.47,0,22.58-10.11,22.58-22.58,0-3.66-.88-7.12-2.43-10.18,3.04-1.08,5.23-3.97,5.23-7.39Z"/>
        <path class="cls-4" d="M283.13,207.72c0-1.17-.89-2.14-2.04-2.26.11-.47.17-.96.17-1.47,0-3.61-2.93-6.54-6.54-6.54-1.1,0-2.13.27-3.04.75-.55-.46-1.31-.75-2.15-.75-1.69,0-3.07,1.17-3.07,2.61,0,.28.05.55.15.81-3.2.43-5.66,3.17-5.66,6.48,0,3.09,2.14,5.68,5.02,6.36-.84,1.23-.83,2.79.11,3.73,1.09,1.09,3,.94,4.26-.33.09-.09.18-.19.26-.29,1.2,1.53,3.06,2.52,5.15,2.52,3.61,0,6.54-2.93,6.54-6.54,0-1.06-.26-2.06-.7-2.95.88-.31,1.51-1.15,1.51-2.14Z"/>
      </g>
      <g>
        <path class="cls-6" d="M402.05,214.74c0-5.34-4.05-9.73-9.25-10.27.49-2.14.77-4.37.77-6.67,0-16.43-13.32-29.74-29.74-29.74-4.99,0-9.68,1.23-13.81,3.4-2.51-2.1-5.96-3.4-9.75-3.4-7.7,0-13.94,5.32-13.94,11.88,0,1.29.25,2.52.69,3.68-14.53,1.96-25.74,14.4-25.74,29.47,0,14.05,9.74,25.81,22.84,28.93-3.83,5.57-3.77,12.68.52,16.97,4.94,4.94,13.62,4.28,19.39-1.49.42-.42.81-.87,1.18-1.32,5.44,6.96,13.91,11.44,23.43,11.44,16.43,0,29.74-13.32,29.74-29.74,0-4.83-1.16-9.38-3.2-13.41,4.01-1.42,6.88-5.23,6.88-9.73Z"/>
        <path class="cls-7" d="M389.93,215.48c0-4.06-3.08-7.39-7.03-7.8.37-1.63.58-3.32.58-5.06,0-12.47-10.11-22.58-22.58-22.58-3.79,0-7.35.93-10.48,2.58-1.91-1.59-4.52-2.58-7.41-2.58-5.85,0-10.59,4.04-10.59,9.02,0,.98.19,1.92.53,2.8-11.04,1.48-19.55,10.93-19.55,22.38,0,10.67,7.4,19.6,17.34,21.97-2.91,4.23-2.87,9.63.39,12.89,3.75,3.75,10.35,3.25,14.72-1.13.32-.32.62-.66.9-1,4.13,5.29,10.56,8.69,17.79,8.69,12.47,0,22.58-10.11,22.58-22.58,0-3.66-.88-7.12-2.43-10.18,3.04-1.08,5.23-3.97,5.23-7.39Z"/>
        <path class="cls-2" d="M389.93,215.48c0-4.06-3.08-7.39-7.03-7.8.37-1.63.58-3.32.58-5.06,0-12.47-10.11-22.58-22.58-22.58-3.79,0-7.35.93-10.48,2.58-1.91-1.59-4.52-2.58-7.41-2.58-5.85,0-10.59,4.04-10.59,9.02,0,.98.19,1.92.53,2.8-11.04,1.48-19.55,10.93-19.55,22.38,0,10.67,7.4,19.6,17.34,21.97-2.91,4.23-2.87,9.63.39,12.89,3.75,3.75,10.35,3.25,14.72-1.13.32-.32.62-.66.9-1,4.13,5.29,10.56,8.69,17.79,8.69,12.47,0,22.58-10.11,22.58-22.58,0-3.66-.88-7.12-2.43-10.18,3.04-1.08,5.23-3.97,5.23-7.39Z"/>
        <path class="cls-4" d="M362.74,217.15c0-1.17-.89-2.14-2.04-2.26.11-.47.17-.96.17-1.47,0-3.61-2.93-6.54-6.54-6.54-1.1,0-2.13.27-3.04.75-.55-.46-1.31-.75-2.15-.75-1.69,0-3.07,1.17-3.07,2.61,0,.28.05.55.15.81-3.2.43-5.66,3.17-5.66,6.48,0,3.09,2.14,5.68,5.02,6.36-.84,1.23-.83,2.79.11,3.73,1.09,1.09,3,.94,4.26-.33.09-.09.18-.19.26-.29,1.2,1.53,3.06,2.52,5.15,2.52,3.61,0,6.54-2.93,6.54-6.54,0-1.06-.26-2.06-.7-2.95.88-.31,1.51-1.15,1.51-2.14Z"/>
      </g>
      <g>
        <path class="cls-6" d="M457.48,237.8c3.89-3.66,4.3-9.63,1.12-13.78,1.9-1.11,3.71-2.44,5.37-4.02,11.95-11.27,12.5-30.1,1.23-42.04-3.42-3.63-7.54-6.2-11.95-7.71-.2-3.27-1.61-6.66-4.22-9.43-5.28-5.6-13.43-6.49-18.21-1.99-.94.88-1.67,1.91-2.2,3.03-11.39-9.23-28.14-8.85-39.1,1.49-10.22,9.64-12.09,24.8-5.37,36.46-6.68,1.04-11.81,5.96-11.99,12.02-.2,6.99,6.24,12.85,14.39,13.08.6.02,1.19,0,1.77-.05-1.33,8.73,1.22,17.97,7.75,24.89,11.27,11.95,30.1,12.5,42.04,1.23,3.51-3.31,6.03-7.28,7.56-11.53,3.78,1.94,8.53,1.42,11.8-1.67Z"/>
        <path class="cls-7" d="M448.61,229.49c2.95-2.78,3.26-7.31.85-10.46,1.44-.85,2.81-1.85,4.08-3.05,9.07-8.56,9.49-22.85.93-31.93-2.6-2.75-5.72-4.71-9.07-5.86-.15-2.48-1.23-5.06-3.21-7.16-4.01-4.25-10.2-4.93-13.82-1.51-.71.67-1.26,1.45-1.67,2.3-8.65-7.01-21.37-6.72-29.69,1.13-7.76,7.32-9.18,18.83-4.08,27.69-5.07.79-8.97,4.52-9.1,9.13-.15,5.31,4.74,9.75,10.93,9.93.46.01.9,0,1.35-.04-1.01,6.63.93,13.64,5.89,18.9,8.56,9.07,22.85,9.49,31.93.93,2.67-2.51,4.58-5.53,5.74-8.75,2.87,1.47,6.48,1.08,8.96-1.27Z"/>
        <path class="cls-2" d="M448.61,229.49c2.95-2.78,3.26-7.31.85-10.46,1.44-.85,2.81-1.85,4.08-3.05,9.07-8.56,9.49-22.85.93-31.93-2.6-2.75-5.72-4.71-9.07-5.86-.15-2.48-1.23-5.06-3.21-7.16-4.01-4.25-10.2-4.93-13.82-1.51-.71.67-1.26,1.45-1.67,2.3-8.65-7.01-21.37-6.72-29.69,1.13-7.76,7.32-9.18,18.83-4.08,27.69-5.07.79-8.97,4.52-9.1,9.13-.15,5.31,4.74,9.75,10.93,9.93.46.01.9,0,1.35-.04-1.01,6.63.93,13.64,5.89,18.9,8.56,9.07,22.85,9.49,31.93.93,2.67-2.51,4.58-5.53,5.74-8.75,2.87,1.47,6.48,1.08,8.96-1.27Z"/>
        <path class="cls-4" d="M428.75,210.87c.85-.81.95-2.12.25-3.03.42-.24.81-.54,1.18-.88,2.63-2.48,2.75-6.62.27-9.25-.75-.8-1.66-1.36-2.63-1.7-.04-.72-.36-1.47-.93-2.07-1.16-1.23-2.95-1.43-4-.44-.21.19-.37.42-.48.67-2.51-2.03-6.19-1.95-8.6.33-2.25,2.12-2.66,5.45-1.18,8.02-1.47.23-2.6,1.31-2.64,2.64-.04,1.54,1.37,2.82,3.16,2.88.13,0,.26,0,.39-.01-.29,1.92.27,3.95,1.71,5.47,2.48,2.63,6.62,2.75,9.25.27.77-.73,1.33-1.6,1.66-2.54.83.43,1.88.31,2.59-.37Z"/>
      </g>
      <g>
        <path class="cls-6" d="M523.78,202.03c0-5.34-4.05-9.73-9.25-10.27.49-2.14.77-4.37.77-6.67,0-16.43-13.32-29.74-29.74-29.74-4.99,0-9.68,1.23-13.81,3.4-2.51-2.1-5.96-3.4-9.75-3.4-7.7,0-13.94,5.32-13.94,11.88,0,1.29.25,2.52.69,3.68-14.53,1.96-25.74,14.4-25.74,29.47,0,14.05,9.74,25.81,22.84,28.93-3.83,5.57-3.77,12.68.52,16.97,4.94,4.94,13.62,4.28,19.39-1.49.42-.42.81-.87,1.18-1.32,5.44,6.96,13.91,11.44,23.43,11.44,16.43,0,29.74-13.32,29.74-29.74,0-4.83-1.16-9.38-3.2-13.41,4.01-1.42,6.88-5.23,6.88-9.73Z"/>
        <path class="cls-7" d="M511.65,202.77c0-4.06-3.08-7.39-7.03-7.8.37-1.63.58-3.32.58-5.06,0-12.47-10.11-22.58-22.58-22.58-3.79,0-7.35.93-10.48,2.58-1.91-1.59-4.52-2.58-7.41-2.58-5.85,0-10.59,4.04-10.59,9.02,0,.98.19,1.92.53,2.8-11.04,1.48-19.55,10.93-19.55,22.38,0,10.67,7.4,19.6,17.34,21.97-2.91,4.23-2.87,9.63.39,12.89,3.75,3.75,10.35,3.25,14.72-1.13.32-.32.62-.66.9-1,4.13,5.29,10.56,8.69,17.79,8.69,12.47,0,22.58-10.11,22.58-22.58,0-3.66-.88-7.12-2.43-10.18,3.04-1.08,5.23-3.97,5.23-7.39Z"/>
        <path class="cls-2" d="M511.65,202.77c0-4.06-3.08-7.39-7.03-7.8.37-1.63.58-3.32.58-5.06,0-12.47-10.11-22.58-22.58-22.58-3.79,0-7.35.93-10.48,2.58-1.91-1.59-4.52-2.58-7.41-2.58-5.85,0-10.59,4.04-10.59,9.02,0,.98.19,1.92.53,2.8-11.04,1.48-19.55,10.93-19.55,22.38,0,10.67,7.4,19.6,17.34,21.97-2.91,4.23-2.87,9.63.39,12.89,3.75,3.75,10.35,3.25,14.72-1.13.32-.32.62-.66.9-1,4.13,5.29,10.56,8.69,17.79,8.69,12.47,0,22.58-10.11,22.58-22.58,0-3.66-.88-7.12-2.43-10.18,3.04-1.08,5.23-3.97,5.23-7.39Z"/>
        <path class="cls-4" d="M484.47,204.44c0-1.17-.89-2.14-2.04-2.26.11-.47.17-.96.17-1.47,0-3.61-2.93-6.54-6.54-6.54-1.1,0-2.13.27-3.04.75-.55-.46-1.31-.75-2.15-.75-1.69,0-3.07,1.17-3.07,2.61,0,.28.05.55.15.81-3.2.43-5.66,3.17-5.66,6.48,0,3.09,2.14,5.68,5.02,6.36-.84,1.23-.83,2.79.11,3.73,1.09,1.09,3,.94,4.26-.33.09-.09.18-.19.26-.29,1.2,1.53,3.06,2.52,5.15,2.52,3.61,0,6.54-2.93,6.54-6.54,0-1.06-.26-2.06-.7-2.95.88-.31,1.51-1.15,1.51-2.14Z"/>
      </g>
      <g>
        <path class="cls-6" d="M473.32,100.95c-3.34-3.93-9.18-4.54-13.48-1.57-.97-1.9-2.15-3.71-3.58-5.4-10.27-12.09-28.75-13.27-41.27-2.64-3.8,3.23-6.61,7.17-8.4,11.44-3.23.08-6.66,1.35-9.56,3.81-5.87,4.99-7.3,12.94-3.2,17.77.8.95,1.77,1.7,2.83,2.26-9.85,10.85-10.61,27.27-1.19,38.36,8.79,10.34,23.57,12.69,35.5,6.5.57,6.58,5.05,11.78,11.01,12.16,6.86.44,13.06-5.67,13.85-13.65.06-.59.08-1.17.07-1.74,8.5,1.6,17.75-.58,25.01-6.75,12.52-10.64,14.34-29.06,4.07-41.15-3.02-3.55-6.75-6.15-10.82-7.79,2.17-3.64,1.97-8.31-.84-11.62Z"/>
        <path class="cls-7" d="M464.54,109.35c-2.54-2.99-6.97-3.45-10.23-1.19-.73-1.44-1.63-2.82-2.72-4.1-7.8-9.18-21.83-10.08-31.33-2-2.88,2.45-5.02,5.45-6.38,8.69-2.45.06-5.06,1.03-7.26,2.9-4.46,3.79-5.54,9.83-2.43,13.49.61.72,1.34,1.29,2.15,1.72-7.48,8.24-8.06,20.7-.9,29.13,6.67,7.85,17.9,9.64,26.95,4.94.43,5,3.84,8.94,8.36,9.23,5.21.33,9.92-4.31,10.51-10.37.04-.45.06-.89.06-1.32,6.45,1.22,13.48-.44,18.99-5.12,9.51-8.08,10.89-22.07,3.09-31.25-2.29-2.7-5.12-4.67-8.22-5.92,1.65-2.76,1.5-6.31-.64-8.82Z"/>
        <path class="cls-2" d="M464.54,109.35c-2.54-2.99-6.97-3.45-10.23-1.19-.73-1.44-1.63-2.82-2.72-4.1-7.8-9.18-21.83-10.08-31.33-2-2.88,2.45-5.02,5.45-6.38,8.69-2.45.06-5.06,1.03-7.26,2.9-4.46,3.79-5.54,9.83-2.43,13.49.61.72,1.34,1.29,2.15,1.72-7.48,8.24-8.06,20.7-.9,29.13,6.67,7.85,17.9,9.64,26.95,4.94.43,5,3.84,8.94,8.36,9.23,5.21.33,9.92-4.31,10.51-10.37.04-.45.06-.89.06-1.32,6.45,1.22,13.48-.44,18.99-5.12,9.51-8.08,10.89-22.07,3.09-31.25-2.29-2.7-5.12-4.67-8.22-5.92,1.65-2.76,1.5-6.31-.64-8.82Z"/>
        <path class="cls-4" d="M444.87,128.18c-.73-.86-2.02-1-2.96-.34-.21-.42-.47-.82-.79-1.19-2.26-2.66-6.32-2.92-9.08-.58-.84.71-1.45,1.58-1.85,2.52-.71.02-1.47.3-2.1.84-1.29,1.1-1.61,2.85-.7,3.91.18.21.39.37.62.5-2.17,2.39-2.33,6-.26,8.44,1.93,2.27,5.18,2.79,7.81,1.43.12,1.45,1.11,2.59,2.42,2.67,1.51.1,2.87-1.25,3.04-3,.01-.13.02-.26.02-.38,1.87.35,3.9-.13,5.5-1.48,2.75-2.34,3.15-6.39.89-9.05-.66-.78-1.48-1.35-2.38-1.71.48-.8.43-1.83-.18-2.55Z"/>
      </g>
      <g>
        <path class="cls-6" d="M412.43,134.38c0-5.34-4.05-9.73-9.25-10.27.49-2.14.77-4.37.77-6.67,0-16.43-13.32-29.74-29.74-29.74-4.99,0-9.68,1.23-13.81,3.4-2.51-2.1-5.96-3.4-9.75-3.4-7.7,0-13.94,5.32-13.94,11.88,0,1.29.25,2.52.69,3.68-14.53,1.96-25.74,14.4-25.74,29.47,0,14.05,9.74,25.81,22.84,28.93-3.83,5.57-3.77,12.68.52,16.97,4.94,4.94,13.62,4.28,19.39-1.49.42-.42.81-.87,1.18-1.32,5.44,6.96,13.91,11.44,23.43,11.44,16.43,0,29.74-13.32,29.74-29.74,0-4.83-1.16-9.38-3.2-13.41,4.01-1.42,6.88-5.23,6.88-9.73Z"/>
        <path class="cls-7" d="M400.3,135.12c0-4.06-3.08-7.39-7.03-7.8.37-1.63.58-3.32.58-5.06,0-12.47-10.11-22.58-22.58-22.58-3.79,0-7.35.93-10.48,2.58-1.91-1.59-4.52-2.58-7.41-2.58-5.85,0-10.59,4.04-10.59,9.02,0,.98.19,1.92.53,2.8-11.04,1.48-19.55,10.93-19.55,22.38,0,10.67,7.4,19.6,17.34,21.97-2.91,4.23-2.87,9.63.39,12.89,3.75,3.75,10.35,3.25,14.72-1.13.32-.32.62-.66.9-1,4.13,5.29,10.56,8.69,17.79,8.69,12.47,0,22.58-10.11,22.58-22.58,0-3.66-.88-7.12-2.43-10.18,3.04-1.08,5.23-3.97,5.23-7.39Z"/>
        <path class="cls-2" d="M400.3,135.12c0-4.06-3.08-7.39-7.03-7.8.37-1.63.58-3.32.58-5.06,0-12.47-10.11-22.58-22.58-22.58-3.79,0-7.35.93-10.48,2.58-1.91-1.59-4.52-2.58-7.41-2.58-5.85,0-10.59,4.04-10.59,9.02,0,.98.19,1.92.53,2.8-11.04,1.48-19.55,10.93-19.55,22.38,0,10.67,7.4,19.6,17.34,21.97-2.91,4.23-2.87,9.63.39,12.89,3.75,3.75,10.35,3.25,14.72-1.13.32-.32.62-.66.9-1,4.13,5.29,10.56,8.69,17.79,8.69,12.47,0,22.58-10.11,22.58-22.58,0-3.66-.88-7.12-2.43-10.18,3.04-1.08,5.23-3.97,5.23-7.39Z"/>
        <path class="cls-4" d="M373.12,136.79c0-1.17-.89-2.14-2.04-2.26.11-.47.17-.96.17-1.47,0-3.61-2.93-6.54-6.54-6.54-1.1,0-2.13.27-3.04.75-.55-.46-1.31-.75-2.15-.75-1.69,0-3.07,1.17-3.07,2.61,0,.28.05.55.15.81-3.2.43-5.66,3.17-5.66,6.48,0,3.09,2.14,5.68,5.02,6.36-.84,1.23-.83,2.79.11,3.73,1.09,1.09,3,.94,4.26-.33.09-.09.18-.19.26-.29,1.2,1.53,3.06,2.52,5.15,2.52,3.61,0,6.54-2.93,6.54-6.54,0-1.06-.26-2.06-.7-2.95.88-.31,1.51-1.15,1.51-2.14Z"/>
      </g>
      <g>
        <path class="cls-6" d="M277.77,121.32c0-5.34-4.05-9.73-9.25-10.27.49-2.14.77-4.37.77-6.67,0-16.43-13.32-29.74-29.74-29.74-4.99,0-9.68,1.23-13.81,3.4-2.51-2.1-5.96-3.4-9.75-3.4-7.7,0-13.94,5.32-13.94,11.88,0,1.29.25,2.52.69,3.68-14.53,1.96-25.74,14.4-25.74,29.47,0,14.05,9.74,25.81,22.84,28.93-3.83,5.57-3.77,12.68.52,16.97,4.94,4.94,13.62,4.28,19.39-1.49.42-.42.81-.87,1.18-1.32,5.44,6.96,13.91,11.44,23.43,11.44,16.43,0,29.74-13.32,29.74-29.74,0-4.83-1.16-9.38-3.2-13.41,4.01-1.42,6.88-5.23,6.88-9.73Z"/>
        <path class="cls-7" d="M265.64,122.07c0-4.06-3.08-7.39-7.03-7.8.37-1.63.58-3.32.58-5.06,0-12.47-10.11-22.58-22.58-22.58-3.79,0-7.35.93-10.48,2.58-1.91-1.59-4.52-2.58-7.41-2.58-5.85,0-10.59,4.04-10.59,9.02,0,.98.19,1.92.53,2.8-11.04,1.48-19.55,10.93-19.55,22.38,0,10.67,7.4,19.6,17.34,21.97-2.91,4.23-2.87,9.63.39,12.89,3.75,3.75,10.35,3.25,14.72-1.13.32-.32.62-.66.9-1,4.13,5.29,10.56,8.69,17.79,8.69,12.47,0,22.58-10.11,22.58-22.58,0-3.66-.88-7.12-2.43-10.18,3.04-1.08,5.23-3.97,5.23-7.39Z"/>
        <path class="cls-2" d="M265.64,122.07c0-4.06-3.08-7.39-7.03-7.8.37-1.63.58-3.32.58-5.06,0-12.47-10.11-22.58-22.58-22.58-3.79,0-7.35.93-10.48,2.58-1.91-1.59-4.52-2.58-7.41-2.58-5.85,0-10.59,4.04-10.59,9.02,0,.98.19,1.92.53,2.8-11.04,1.48-19.55,10.93-19.55,22.38,0,10.67,7.4,19.6,17.34,21.97-2.91,4.23-2.87,9.63.39,12.89,3.75,3.75,10.35,3.25,14.72-1.13.32-.32.62-.66.9-1,4.13,5.29,10.56,8.69,17.79,8.69,12.47,0,22.58-10.11,22.58-22.58,0-3.66-.88-7.12-2.43-10.18,3.04-1.08,5.23-3.97,5.23-7.39Z"/>
        <path class="cls-4" d="M238.46,123.74c0-1.17-.89-2.14-2.04-2.26.11-.47.17-.96.17-1.47,0-3.61-2.93-6.54-6.54-6.54-1.1,0-2.13.27-3.04.75-.55-.46-1.31-.75-2.15-.75-1.69,0-3.07,1.17-3.07,2.61,0,.28.05.55.15.81-3.2.43-5.66,3.17-5.66,6.48,0,3.09,2.14,5.68,5.02,6.36-.84,1.23-.83,2.79.11,3.73,1.09,1.09,3,.94,4.26-.33.09-.09.18-.19.26-.29,1.2,1.53,3.06,2.52,5.15,2.52,3.61,0,6.54-2.93,6.54-6.54,0-1.06-.26-2.06-.7-2.95.88-.31,1.51-1.15,1.51-2.14Z"/>
      </g>
      <g>
        <path class="cls-6" d="M212.26,110.38c0-5.34-4.05-9.73-9.25-10.27.49-2.14.77-4.37.77-6.67,0-16.43-13.32-29.74-29.74-29.74-4.99,0-9.68,1.23-13.81,3.4-2.51-2.1-5.96-3.4-9.75-3.4-7.7,0-13.94,5.32-13.94,11.88,0,1.29.25,2.52.69,3.68-14.53,1.96-25.74,14.4-25.74,29.47,0,14.05,9.74,25.81,22.84,28.93-3.83,5.57-3.77,12.68.52,16.97,4.94,4.94,13.62,4.28,19.39-1.49.42-.42.81-.87,1.18-1.32,5.44,6.96,13.91,11.44,23.43,11.44,16.43,0,29.74-13.32,29.74-29.74,0-4.83-1.16-9.38-3.2-13.41,4.01-1.42,6.88-5.23,6.88-9.73Z"/>
        <path class="cls-7" d="M200.13,111.12c0-4.06-3.08-7.39-7.03-7.8.37-1.63.58-3.32.58-5.06,0-12.47-10.11-22.58-22.58-22.58-3.79,0-7.35.93-10.48,2.58-1.91-1.59-4.52-2.58-7.41-2.58-5.85,0-10.59,4.04-10.59,9.02,0,.98.19,1.92.53,2.8-11.04,1.48-19.55,10.93-19.55,22.38,0,10.67,7.4,19.6,17.34,21.97-2.91,4.23-2.87,9.63.39,12.89,3.75,3.75,10.35,3.25,14.72-1.13.32-.32.62-.66.9-1,4.13,5.29,10.56,8.69,17.79,8.69,12.47,0,22.58-10.11,22.58-22.58,0-3.66-.88-7.12-2.43-10.18,3.04-1.08,5.23-3.97,5.23-7.39Z"/>
        <path class="cls-2" d="M200.13,111.12c0-4.06-3.08-7.39-7.03-7.8.37-1.63.58-3.32.58-5.06,0-12.47-10.11-22.58-22.58-22.58-3.79,0-7.35.93-10.48,2.58-1.91-1.59-4.52-2.58-7.41-2.58-5.85,0-10.59,4.04-10.59,9.02,0,.98.19,1.92.53,2.8-11.04,1.48-19.55,10.93-19.55,22.38,0,10.67,7.4,19.6,17.34,21.97-2.91,4.23-2.87,9.63.39,12.89,3.75,3.75,10.35,3.25,14.72-1.13.32-.32.62-.66.9-1,4.13,5.29,10.56,8.69,17.79,8.69,12.47,0,22.58-10.11,22.58-22.58,0-3.66-.88-7.12-2.43-10.18,3.04-1.08,5.23-3.97,5.23-7.39Z"/>
        <path class="cls-4" d="M172.95,112.79c0-1.17-.89-2.14-2.04-2.26.11-.47.17-.96.17-1.47,0-3.61-2.93-6.54-6.54-6.54-1.1,0-2.13.27-3.04.75-.55-.46-1.31-.75-2.15-.75-1.69,0-3.07,1.17-3.07,2.61,0,.28.05.55.15.81-3.2.43-5.66,3.17-5.66,6.48,0,3.09,2.14,5.68,5.02,6.36-.84,1.23-.83,2.79.11,3.73,1.09,1.09,3,.94,4.26-.33.09-.09.18-.19.26-.29,1.2,1.53,3.06,2.52,5.15,2.52,3.61,0,6.54-2.93,6.54-6.54,0-1.06-.26-2.06-.7-2.95.88-.31,1.51-1.15,1.51-2.14Z"/>
      </g>
      <g>
        <path class="cls-6" d="M183.39,132.69c-3.74-3.81-9.71-4.11-13.8-.86-1.15-1.88-2.51-3.66-4.12-5.3-11.5-11.73-30.33-11.92-42.06-.42-3.56,3.49-6.05,7.66-7.48,12.09-3.27.26-6.63,1.74-9.34,4.4-5.5,5.39-6.23,13.56-1.64,18.24.9.92,1.94,1.63,3.07,2.15-9.01,11.57-8.3,28.3,2.25,39.06,9.84,10.03,25.03,11.61,36.56,4.67,1.17,6.66,6.18,11.7,12.25,11.76,6.99.07,12.72-6.48,12.8-14.64,0-.6-.03-1.19-.08-1.77,8.76,1.16,17.94-1.57,24.74-8.23,11.73-11.5,11.92-30.33.42-42.06-3.38-3.45-7.39-5.88-11.67-7.33,1.87-3.82,1.25-8.56-1.89-11.76Z"/>
        <path class="cls-7" d="M175.26,141.72c-2.84-2.9-7.37-3.12-10.48-.65-.87-1.42-1.91-2.78-3.13-4.02-8.73-8.91-23.03-9.05-31.94-.32-2.7,2.65-4.6,5.81-5.68,9.18-2.48.2-5.04,1.32-7.1,3.34-4.17,4.09-4.73,10.29-1.25,13.85.68.7,1.48,1.24,2.33,1.63-6.84,8.79-6.3,21.49,1.71,29.66,7.47,7.62,19.01,8.82,27.76,3.54.89,5.06,4.69,8.88,9.3,8.93,5.31.05,9.66-4.92,9.72-11.11,0-.46-.02-.9-.06-1.35,6.65.88,13.62-1.19,18.78-6.25,8.91-8.73,9.05-23.03.32-31.94-2.57-2.62-5.61-4.47-8.86-5.57,1.42-2.9.95-6.5-1.44-8.93Z"/>
        <path class="cls-2" d="M175.26,141.72c-2.84-2.9-7.37-3.12-10.48-.65-.87-1.42-1.91-2.78-3.13-4.02-8.73-8.91-23.03-9.05-31.94-.32-2.7,2.65-4.6,5.81-5.68,9.18-2.48.2-5.04,1.32-7.1,3.34-4.17,4.09-4.73,10.29-1.25,13.85.68.7,1.48,1.24,2.33,1.63-6.84,8.79-6.3,21.49,1.71,29.66,7.47,7.62,19.01,8.82,27.76,3.54.89,5.06,4.69,8.88,9.3,8.93,5.31.05,9.66-4.92,9.72-11.11,0-.46-.02-.9-.06-1.35,6.65.88,13.62-1.19,18.78-6.25,8.91-8.73,9.05-23.03.32-31.94-2.57-2.62-5.61-4.47-8.86-5.57,1.42-2.9.95-6.5-1.44-8.93Z"/>
        <path class="cls-4" d="M157.02,161.94c-.82-.84-2.14-.9-3.03-.19-.25-.41-.55-.8-.91-1.16-2.53-2.58-6.67-2.62-9.25-.09-.78.77-1.33,1.68-1.65,2.66-.72.06-1.46.38-2.06.97-1.21,1.19-1.37,2.98-.36,4.01.2.2.43.36.68.47-1.98,2.54-1.83,6.22.49,8.59,2.16,2.21,5.5,2.55,8.04,1.03.26,1.46,1.36,2.57,2.69,2.59,1.54.02,2.8-1.43,2.82-3.22,0-.13,0-.26-.02-.39,1.93.26,3.95-.34,5.44-1.81,2.58-2.53,2.62-6.67.09-9.25-.74-.76-1.63-1.29-2.57-1.61.41-.84.28-1.88-.42-2.59Z"/>
      </g>
      <g>
        <path class="cls-6" d="M361.47,39.24c-3.82-3.73-9.8-3.9-13.81-.55-1.19-1.85-2.59-3.6-4.23-5.2-11.75-11.47-30.58-11.25-42.06.5-3.48,3.57-5.88,7.79-7.21,12.25-3.26.33-6.59,1.89-9.25,4.61-5.38,5.51-5.93,13.69-1.24,18.27.92.9,1.98,1.59,3.12,2.08-8.75,11.76-7.68,28.48,3.1,39,10.05,9.81,25.28,11.06,36.65,3.87,1.31,6.63,6.44,11.56,12.51,11.48,6.99-.08,12.58-6.76,12.48-14.91,0-.6-.05-1.19-.12-1.77,8.78.97,17.9-1.96,24.55-8.77,11.47-11.75,11.25-30.58-.5-42.06-3.45-3.37-7.52-5.72-11.83-7.07,1.78-3.86,1.06-8.58-2.15-11.72Z"/>
        <path class="cls-7" d="M353.53,48.44c-2.9-2.83-7.44-2.96-10.49-.42-.9-1.4-1.97-2.74-3.22-3.95-8.92-8.71-23.22-8.54-31.94.38-2.64,2.71-4.47,5.91-5.48,9.3-2.47.25-5.01,1.43-7.02,3.5-4.08,4.18-4.51,10.4-.94,13.87.7.68,1.5,1.2,2.37,1.58-6.65,8.93-5.83,21.62,2.36,29.62,7.63,7.45,19.19,8.4,27.83,2.94,1,5.04,4.89,8.78,9.5,8.72,5.31-.06,9.55-5.13,9.48-11.32,0-.46-.04-.9-.09-1.34,6.67.74,13.59-1.49,18.64-6.66,8.71-8.92,8.54-23.22-.38-31.94-2.62-2.56-5.71-4.34-8.98-5.37,1.35-2.93.81-6.52-1.63-8.9Z"/>
        <path class="cls-2" d="M353.53,48.44c-2.9-2.83-7.44-2.96-10.49-.42-.9-1.4-1.97-2.74-3.22-3.95-8.92-8.71-23.22-8.54-31.94.38-2.64,2.71-4.47,5.91-5.48,9.3-2.47.25-5.01,1.43-7.02,3.5-4.08,4.18-4.51,10.4-.94,13.87.7.68,1.5,1.2,2.37,1.58-6.65,8.93-5.83,21.62,2.36,29.62,7.63,7.45,19.19,8.4,27.83,2.94,1,5.04,4.89,8.78,9.5,8.72,5.31-.06,9.55-5.13,9.48-11.32,0-.46-.04-.9-.09-1.34,6.67.74,13.59-1.49,18.64-6.66,8.71-8.92,8.54-23.22-.38-31.94-2.62-2.56-5.71-4.34-8.98-5.37,1.35-2.93.81-6.52-1.63-8.9Z"/>
        <path class="cls-4" d="M335.74,69.05c-.84-.82-2.15-.86-3.04-.12-.26-.41-.57-.79-.93-1.14-2.58-2.52-6.73-2.47-9.25.11-.77.78-1.29,1.71-1.59,2.69-.72.07-1.45.42-2.03,1.01-1.18,1.21-1.31,3.01-.27,4.02.2.2.44.35.69.46-1.92,2.59-1.69,6.26.68,8.58,2.21,2.16,5.56,2.43,8.06.85.29,1.46,1.42,2.54,2.75,2.53,1.54-.02,2.77-1.49,2.74-3.28,0-.13-.01-.26-.03-.39,1.93.21,3.94-.43,5.4-1.93,2.52-2.58,2.47-6.73-.11-9.25-.76-.74-1.65-1.26-2.6-1.56.39-.85.23-1.89-.47-2.58Z"/>
      </g>
      <g>
        <path class="cls-3" d="M89.96,546.47h0c-13.38,0-25.78-8.86-27.71-19.97l17.7,132.92h45.23l-13.55-131.32c.42,10.34-8.93,18.36-21.66,18.36Z"/>
        <path class="cls-12" d="M138.43,546.47h0c-13.38,0-25.43-8.86-26.94-19.97.07.54.11,1.07.13,1.6l13.55,131.32h45.23l-9.6-131.76c.3,10.55-9.46,18.8-22.37,18.8Z"/>
        <path class="cls-3" d="M186.89,546.47h0c-13.38,0-25.09-8.86-26.17-19.97.04.39.06.78.07,1.16l9.6,131.76h45.23l-5.66-132.92c.65,11.1-9.69,19.97-23.07,19.97Z"/>
        <path class="cls-12" d="M235.36,546.47h0c-13.38,0-24.75-8.86-25.39-19.97l5.66,132.92h45.23l-1.64-132.92c.22,11.1-10.46,19.97-23.85,19.97Z"/>
        <path class="cls-3" d="M283.82,546.47h0c-13.38,0-24.4-8.86-24.62-19.97l1.64,132.92h45.23l2.37-132.92c-.22,11.1-11.24,19.97-24.62,19.97Z"/>
        <path class="cls-12" d="M332.29,546.47h0c-13.38,0-24.06-8.86-23.85-19.97l-2.37,132.92h45.23l6.38-132.92c-.65,11.1-12.01,19.97-25.39,19.97Z"/>
        <path class="cls-3" d="M406.92,526.51c-1.08,11.1-12.78,19.97-26.17,19.97h0c-13.38,0-23.72-8.86-23.07-19.97l-6.38,132.92h45.23l10.33-131.76c.01-.39.03-.77.07-1.16Z"/>
        <path class="cls-12" d="M456.16,526.51c-1.51,11.1-13.56,19.97-26.94,19.97s-22.66-8.25-22.37-18.8l-10.33,131.76h45.23l14.28-131.32c.02-.53.06-1.06.13-1.6Z"/>
        <path class="cls-3" d="M477.68,546.47c-12.73,0-22.08-8.02-21.66-18.36l-14.28,131.32h45.23l18.42-132.92c-1.94,11.1-14.33,19.97-27.71,19.97Z"/>
        <path class="cls-9" d="M89.96,546.47h0c12.73,0,22.08-8.02,21.66-18.36-.02-.53-.06-1.06-.13-1.6l-33.63-247.95H19.01l43.24,247.95c1.94,11.1,14.33,19.97,27.71,19.97Z"/>
        <polygon class="cls-9" points="74.66 254.97 14.9 254.97 15.93 260.88 75.46 260.88 74.66 254.97"/>
        <path class="cls-5" d="M77.86,278.56l33.63,247.95c1.51,11.1,13.56,19.97,26.94,19.97h0c12.91,0,22.66-8.25,22.37-18.8-.01-.39-.03-.77-.07-1.16l-24.02-247.95h-58.85Z"/>
        <polygon class="cls-8" points="134.99 260.88 134.42 254.97 74.66 254.97 75.46 260.88 134.99 260.88"/>
        <polygon class="cls-9" points="194.53 260.88 194.18 254.97 134.42 254.97 134.99 260.88 194.53 260.88"/>
        <path class="cls-9" d="M136.71,278.56l24.02,247.95c1.08,11.1,12.78,19.97,26.17,19.97h0c13.38,0,23.72-8.86,23.07-19.97l-14.41-247.95h-58.85Z"/>
        <polygon class="cls-8" points="254.06 260.88 253.94 254.97 194.18 254.97 194.53 260.88 254.06 260.88"/>
        <path class="cls-5" d="M195.55,278.56l14.41,247.95c.65,11.1,12.01,19.97,25.39,19.97h0c13.38,0,24.06-8.86,23.85-19.97l-4.8-247.95h-58.85Z"/>
        <path class="cls-9" d="M254.4,278.56l4.8,247.95c.22,11.1,11.24,19.97,24.62,19.97h0c13.38,0,24.4-8.86,24.62-19.97l4.8-247.95h-58.85Z"/>
        <polygon class="cls-9" points="313.59 260.88 313.7 254.97 253.94 254.97 254.06 260.88 313.59 260.88"/>
        <polygon class="cls-8" points="373.12 260.88 373.47 254.97 313.7 254.97 313.59 260.88 373.12 260.88"/>
        <path class="cls-5" d="M313.25,278.56l-4.8,247.95c-.22,11.1,10.46,19.97,23.85,19.97h0c13.38,0,24.75-8.86,25.39-19.97l14.41-247.95h-58.85Z"/>
        <path class="cls-9" d="M372.09,278.56l-14.41,247.95c-.65,11.1,9.69,19.97,23.07,19.97h0c13.38,0,25.09-8.86,26.17-19.97l24.02-247.95h-58.85Z"/>
        <polygon class="cls-9" points="432.65 260.88 433.23 254.97 373.47 254.97 373.12 260.88 432.65 260.88"/>
        <polygon class="cls-8" points="492.19 260.88 492.99 254.97 433.23 254.97 432.65 260.88 492.19 260.88"/>
        <path class="cls-5" d="M406.92,526.51c-.04.39-.06.78-.07,1.16-.3,10.55,9.46,18.8,22.37,18.8s25.43-8.86,26.94-19.97l33.63-247.95h-58.85l-24.02,247.95Z"/>
        <path class="cls-9" d="M456.16,526.51c-.07.54-.11,1.07-.13,1.6-.42,10.34,8.93,18.36,21.66,18.36,13.38,0,25.78-8.86,27.71-19.97l43.24-247.95h-58.85l-33.63,247.95Z"/>
        <polygon class="cls-9" points="551.72 260.88 552.75 254.97 492.99 254.97 492.19 260.88 551.72 260.88"/>
        <polygon class="cls-9" points="75.46 260.88 15.93 260.88 19.01 278.56 77.86 278.56 75.46 260.88"/>
        <polygon class="cls-10" points="75.46 260.88 15.93 260.88 19.01 278.56 77.86 278.56 75.46 260.88"/>
        <polygon class="cls-8" points="134.99 260.88 75.46 260.88 77.86 278.56 136.71 278.56 134.99 260.88"/>
        <polygon class="cls-10" points="134.99 260.88 75.46 260.88 77.86 278.56 136.71 278.56 134.99 260.88"/>
        <polygon class="cls-9" points="195.55 278.56 194.53 260.88 134.99 260.88 136.71 278.56 195.55 278.56"/>
        <polygon class="cls-10" points="195.55 278.56 194.53 260.88 134.99 260.88 136.71 278.56 195.55 278.56"/>
        <polygon class="cls-8" points="254.4 278.56 254.06 260.88 194.53 260.88 195.55 278.56 254.4 278.56"/>
        <polygon class="cls-10" points="254.4 278.56 254.06 260.88 194.53 260.88 195.55 278.56 254.4 278.56"/>
        <polygon class="cls-9" points="313.25 278.56 313.59 260.88 254.06 260.88 254.4 278.56 313.25 278.56"/>
        <polygon class="cls-10" points="313.25 278.56 313.59 260.88 254.06 260.88 254.4 278.56 313.25 278.56"/>
        <polygon class="cls-8" points="372.09 278.56 373.12 260.88 313.59 260.88 313.25 278.56 372.09 278.56"/>
        <polygon class="cls-10" points="372.09 278.56 373.12 260.88 313.59 260.88 313.25 278.56 372.09 278.56"/>
        <polygon class="cls-9" points="430.94 278.56 432.65 260.88 373.12 260.88 372.09 278.56 430.94 278.56"/>
        <polygon class="cls-10" points="430.94 278.56 432.65 260.88 373.12 260.88 372.09 278.56 430.94 278.56"/>
        <polygon class="cls-8" points="430.94 278.56 489.79 278.56 492.19 260.88 432.65 260.88 430.94 278.56"/>
        <polygon class="cls-10" points="430.94 278.56 489.79 278.56 492.19 260.88 432.65 260.88 430.94 278.56"/>
        <polygon class="cls-9" points="492.19 260.88 489.79 278.56 548.64 278.56 551.72 260.88 492.19 260.88"/>
        <polygon class="cls-10" points="492.19 260.88 489.79 278.56 548.64 278.56 551.72 260.88 492.19 260.88"/>
      </g>
      <rect class="cls-5" x="0" y="233.97" width="567.65" height="26.91" rx="13.46" ry="13.46"/>
    </g>
    <text class="cls-13" transform="translate(39.53 745.92)"><tspan x="0" y="0">asgi-monitor</tspan></text>
  </g>
</svg>
